<?xml version="1.0" encoding="utf-8"?>
<!-- Generator: Adobe Illustrator 24.1.3, SVG Export Plug-In . SVG Version: 6.00 Build 0)  -->
<svg version="1.1" id="图层_1" xmlns="http://www.w3.org/2000/svg" xmlns:xlink="http://www.w3.org/1999/xlink" x="0px" y="0px"
	 viewBox="0 0 841.89 595.28" style="enable-background:new 0 0 841.89 595.28;" xml:space="preserve">
<style type="text/css">
	.st0{filter:url(#Adobe_OpacityMaskFilter);}
	.st1{fill:url(#SVGID_2_);}
	.st2{mask:url(#SVGID_1_);}
	.st3{filter:url(#Adobe_OpacityMaskFilter_1_);}
	.st4{filter:url(#Adobe_OpacityMaskFilter_2_);}
	.st5{fill:url(#SVGID_3_);}
	.st6{fill:url(#SVGID_4_);}
	.st7{fill:#FF986A;}
	.st8{fill:#FFFFFF;}
</style>
<defs>
	<filter id="Adobe_OpacityMaskFilter" filterUnits="userSpaceOnUse" x="360.27" y="237.04" width="120.46" height="120.46">
		<feColorMatrix  type="matrix" values="1 0 0 0 0  0 1 0 0 0  0 0 1 0 0  0 0 0 1 0"/>
	</filter>
</defs>
<mask maskUnits="userSpaceOnUse" x="360.27" y="237.04" width="120.46" height="120.46" id="SVGID_1_">
	<g class="st0">
		<radialGradient id="SVGID_2_" cx="421.9139" cy="298.2645" r="56.2013" gradientUnits="userSpaceOnUse">
			<stop  offset="0" style="stop-color:#FFFFFF"/>
			<stop  offset="1" style="stop-color:#000000"/>
		</radialGradient>
		<circle class="st1" cx="421.91" cy="298.26" r="56.2"/>
	</g>
</mask>
<g class="st2">
	<defs>
		<filter id="Adobe_OpacityMaskFilter_1_" filterUnits="userSpaceOnUse" x="360.27" y="237.04" width="120.46" height="120.46">
			<feFlood  style="flood-color:white;flood-opacity:1" result="back"/>
			<feBlend  in="SourceGraphic" in2="back" mode="normal"/>
		</filter>
	</defs>
	<mask maskUnits="userSpaceOnUse" x="360.27" y="237.04" width="120.46" height="120.46" id="SVGID_1_">
		<g class="st3">
			<defs>
				<filter id="Adobe_OpacityMaskFilter_2_" filterUnits="userSpaceOnUse" x="360.27" y="237.04" width="120.46" height="120.46">
					<feFlood  style="flood-color:white;flood-opacity:1" result="back"/>
					<feBlend  in="SourceGraphic" in2="back" mode="normal"/>
				</filter>
			</defs>
			<mask maskUnits="userSpaceOnUse" x="360.27" y="237.04" width="120.46" height="120.46" id="SVGID_1_">
				<g class="st4">
				</g>
			</mask>
			<radialGradient id="SVGID_3_" cx="440.3338" cy="325.0956" r="63.2906" gradientUnits="userSpaceOnUse">
				<stop  offset="0" style="stop-color:#FFFFFF"/>
				<stop  offset="1" style="stop-color:#000000"/>
			</radialGradient>
			<circle class="st5" cx="420.5" cy="297.28" r="60.23"/>
		</g>
	</mask>
	<radialGradient id="SVGID_4_" cx="440.3338" cy="325.0956" r="63.2906" gradientUnits="userSpaceOnUse">
		<stop  offset="0" style="stop-color:#000087"/>
		<stop  offset="1" style="stop-color:#9028E9"/>
	</radialGradient>
	<circle class="st6" cx="420.5" cy="297.28" r="60.23"/>
</g>
<ellipse transform="matrix(0.1602 -0.9871 0.9871 0.1602 65.3788 663.5967)" class="st7" cx="422.67" cy="293.38" rx="37.14" ry="37.14"/>
<path class="st8" d="M410.48,281.6c0.34,0,0.68,0,1.03,0c5.79,0,11.58,0,17.37,0c5.84,0.01,10.63,3.73,12.08,9.38
	c1.52,5.94-2.01,12.44-7.79,14.41c-1.48,0.51-2.99,0.76-4.56,0.75c-7.88-0.01-6.13,0-14.01-0.01c-0.4,0-0.82-0.07-1.18-0.22
	c-0.77-0.33-1.19-1.18-1.04-1.96c0.17-0.87,0.86-1.52,1.73-1.56c0.6-0.03,1.21-0.01,1.81-0.01c7.53,0,5.44,0,12.98,0
	c3.78,0,6.9-2.22,8.18-5.78c1.48-4.12-0.66-8.96-4.77-10.55c-1.06-0.41-2.25-0.67-3.38-0.68c-5.94-0.06-11.88-0.03-17.82-0.02
	c-0.2,0-0.41,0.02-0.67,0.19c0.14,0.1,0.26,0.22,0.41,0.31c1.99,1.16,3.99,2.29,5.97,3.46c1.15,0.68,1.3,2.15,0.35,3.01
	c-0.68,0.61-1.45,0.67-2.38,0.14c-1.75-1-3.5-2.02-5.25-3.03c-2.4-1.39-4.8-2.78-7.2-4.16c-1.63-0.93-1.68-2.62-0.08-3.55
	c4.18-2.43,8.39-4.82,12.56-7.26c1.45-0.85,2.8,0.17,2.94,1.26c0.1,0.79-0.21,1.49-0.98,1.94c-1.97,1.15-3.94,2.28-5.91,3.43
	c-0.17,0.1-0.31,0.23-0.46,0.35C410.43,281.49,410.46,281.55,410.48,281.6z"/>
</svg>
