<?xml version="1.0" encoding="utf-8"?>
<!-- Generator: Adobe Illustrator 21.0.0, SVG Export Plug-In . SVG Version: 6.00 Build 0)  -->
<svg version="1.1" id="图层_1" xmlns="http://www.w3.org/2000/svg" xmlns:xlink="http://www.w3.org/1999/xlink" x="0px" y="0px"
	 viewBox="0 0 567 567" style="enable-background:new 0 0 567 567;" xml:space="preserve">
<style type="text/css">
	.st0{fill:#CC3366;}
	.st1{fill:#747C29;}
	.st2{fill:#D97099;}
	.st3{fill:#FFFFFF;}
</style>
<title>coocoo signage button</title>
<path class="st0" d="M220.5,245.4h144.9c21.4,0,38.8,17.4,38.8,38.8v0.8c0,21.4-17.4,38.8-38.8,38.8H220.5
	c-21.4,0-38.8-17.4-38.8-38.8v-0.8C181.7,262.8,199.1,245.4,220.5,245.4z"/>
<ellipse class="st1" cx="287" cy="376.5" rx="29.5" ry="12.6"/>
<path d="M287,301.5L287,301.5c6.5,0,11.7,5.2,11.7,11.7v51.5c0,6.5-5.2,11.7-11.7,11.7l0,0c-6.5,0-11.7-5.2-11.7-11.7v-51.5
	C275.3,306.8,280.6,301.5,287,301.5z"/>
<path class="st2" d="M213.9,234.9h144.9c21.4,0,38.8,17.4,38.8,38.8v0.8c0,21.4-17.4,38.8-38.8,38.8H213.9
	c-21.4,0-38.8-17.4-38.8-38.8v-0.8C175.1,252.2,192.5,234.9,213.9,234.9z"/>
<path class="st3" d="M224.7,284.5v2.2c0,1.1-0.2,2.2-0.6,3.2c-0.4,1-1,1.9-1.8,2.7c-0.7,0.8-1.6,1.4-2.6,1.9s-2.1,0.7-3.2,0.7
	c-1,0-2-0.1-3-0.4s-1.9-0.7-2.8-1.4s-1.5-1.6-2-2.6s-0.8-2.4-0.8-4.1v-20c0-1.2,0.2-2.3,0.6-3.3c0.4-1,1-1.9,1.7-2.6
	s1.6-1.3,2.7-1.8c1-0.4,2.2-0.6,3.4-0.6c2.4,0,4.4,0.8,6,2.4c0.7,0.8,1.3,1.7,1.8,2.8c0.4,1.1,0.6,2.2,0.6,3.5v2h-5.2v-1.7
	c0-1-0.3-1.9-0.9-2.6c-0.6-0.7-1.4-1.1-2.3-1.1c-1.3,0-2.1,0.4-2.6,1.2s-0.6,1.8-0.6,3v18.5c0,1.1,0.2,1.9,0.7,2.6s1.3,1.1,2.5,1.1
	c0.3,0,0.7-0.1,1.1-0.2c0.4-0.1,0.8-0.3,1.1-0.6c0.3-0.3,0.6-0.6,0.8-1.1s0.3-1.1,0.3-1.8v-1.8h5.1V284.5z"/>
<path class="st3" d="M231.7,267.2c0-1.5,0.3-2.8,0.8-3.9s1.2-2.1,2-2.8c0.8-0.7,1.7-1.3,2.8-1.6c1-0.4,2.1-0.6,3.1-0.6
	c1.1,0,2.1,0.2,3.1,0.6s2,0.9,2.8,1.6s1.5,1.7,2,2.8c0.5,1.1,0.8,2.4,0.8,3.9v19.2c0,1.5-0.3,2.8-0.8,3.9s-1.2,2-2,2.7
	s-1.8,1.3-2.8,1.7s-2.1,0.6-3.1,0.6c-1.1,0-2.1-0.2-3.1-0.6s-2-0.9-2.8-1.7c-0.8-0.7-1.5-1.6-2-2.7s-0.8-2.4-0.8-3.9V267.2z
	 M236.9,286.3c0,1.3,0.3,2.2,1,2.8c0.7,0.6,1.5,0.9,2.5,0.9s1.8-0.3,2.5-0.9s1-1.5,1-2.8v-19.2c0-1.3-0.3-2.2-1-2.8
	c-0.7-0.6-1.5-0.9-2.5-0.9s-1.8,0.3-2.5,0.9s-1,1.5-1,2.8V286.3z"/>
<path class="st3" d="M256.6,294.9v-36.3h5l7.8,21.9h0.1v-21.9h5.2v36.3h-4.9l-7.9-21.8h-0.1v21.8H256.6z"/>
<path class="st3" d="M282.2,294.9v-36.3h5l7.8,21.9h0.1v-21.9h5.2v36.3h-4.9l-7.9-21.8h-0.1v21.8H282.2z"/>
<path class="st3" d="M308.1,294.9v-36.3h15.5v4.9h-10.3v10.6h9v4.9h-9v10.6h10.3v5.2L308.1,294.9L308.1,294.9z"/>
<path class="st3" d="M346.5,284.5v2.2c0,1.1-0.2,2.2-0.6,3.2s-1,1.9-1.8,2.7c-0.7,0.8-1.6,1.4-2.6,1.9s-2.1,0.7-3.2,0.7
	c-1,0-2-0.1-3-0.4s-1.9-0.7-2.8-1.4s-1.5-1.6-2-2.6s-0.8-2.4-0.8-4.1v-20c0-1.2,0.2-2.3,0.6-3.3s1-1.9,1.7-2.6s1.6-1.3,2.7-1.8
	c1-0.4,2.2-0.6,3.4-0.6c2.4,0,4.4,0.8,6,2.4c0.7,0.8,1.3,1.7,1.8,2.8c0.4,1.1,0.6,2.2,0.6,3.5v2h-5.2v-1.7c0-1-0.3-1.9-0.9-2.6
	s-1.4-1.1-2.3-1.1c-1.3,0-2.1,0.4-2.6,1.2s-0.6,1.8-0.6,3v18.5c0,1.1,0.2,1.9,0.7,2.6s1.3,1.1,2.5,1.1c0.3,0,0.7-0.1,1.1-0.2
	s0.8-0.3,1.1-0.6c0.3-0.3,0.6-0.6,0.8-1.1c0.2-0.5,0.3-1.1,0.3-1.8v-1.8h5.1V284.5z"/>
<path class="st3" d="M357.2,294.9v-31.4h-6v-4.9h17.2v4.9h-6v31.4H357.2z"/>
</svg>
