<?xml version="1.0" encoding="utf-8"?>
<!-- Generator: Adobe Illustrator 21.0.0, SVG Export Plug-In . SVG Version: 6.00 Build 0)  -->
<svg version="1.1" id="图层_1" xmlns="http://www.w3.org/2000/svg" xmlns:xlink="http://www.w3.org/1999/xlink" x="0px" y="0px"
	 viewBox="0 0 567 567" style="enable-background:new 0 0 567 567;" xml:space="preserve">
<style type="text/css">
	.st0{fill:#0000FF;}
	.st1{fill:#747C29;}
	.st2{fill:#3399FF;}
	.st3{enable-background:new    ;}
	.st4{fill:#FFFFFF;}
</style>
<title>coocoo signage button</title>
<path class="st0" d="M118.4,230.1h329.7c26.5,0,48,21.5,48,48l0,0c0,26.5-21.5,48-48,48H118.4c-26.5,0-48-21.5-48-48l0,0
	C70.3,251.6,91.8,230.1,118.4,230.1z"/>
<ellipse class="st1" cx="278.1" cy="389.5" rx="36.2" ry="15.5"/>
<path d="M278.1,297.6L278.1,297.6c7.9,0,14.4,6.4,14.4,14.4v63.2c0,7.9-6.4,14.4-14.4,14.4h0c-7.9,0-14.4-6.4-14.4-14.4V312
	C263.7,304,270.1,297.6,278.1,297.6z"/>
<path class="st2" d="M107,215.9h329.7c26.5,0,48,21.5,48,48v0c0,26.5-21.5,48-48,48H107c-26.5,0-48-21.5-48-48v0
	C58.9,237.4,80.4,215.9,107,215.9z"/>
<g class="st3">
	<path class="st4" d="M130.9,276.8v2.8c0,1.4-0.3,2.7-0.8,3.9c-0.5,1.2-1.2,2.3-2.2,3.3c-0.9,1-2,1.7-3.2,2.3
		c-1.2,0.6-2.6,0.8-4,0.8c-1.2,0-2.4-0.2-3.7-0.5c-1.2-0.3-2.4-0.9-3.4-1.8c-1-0.8-1.8-1.9-2.5-3.2c-0.6-1.3-1-3-1-5v-24.5
		c0-1.5,0.2-2.8,0.8-4.1c0.5-1.2,1.2-2.3,2.1-3.2c0.9-0.9,2-1.6,3.3-2.2c1.3-0.5,2.7-0.8,4.2-0.8c3,0,5.4,1,7.3,2.9
		c0.9,1,1.6,2.1,2.2,3.4c0.5,1.3,0.8,2.7,0.8,4.3v2.5h-6.4v-2.1c0-1.2-0.4-2.3-1.1-3.2c-0.7-0.9-1.7-1.4-2.9-1.4
		c-1.6,0-2.6,0.5-3.2,1.5c-0.5,1-0.8,2.2-0.8,3.7v22.7c0,1.3,0.3,2.4,0.8,3.2s1.6,1.3,3,1.3c0.4,0,0.9-0.1,1.3-0.2
		c0.5-0.1,0.9-0.4,1.3-0.7c0.4-0.3,0.7-0.8,0.9-1.4c0.2-0.6,0.4-1.3,0.4-2.2v-2.2H130.9z"/>
	<path class="st4" d="M139.4,255.5c0-1.8,0.3-3.4,0.9-4.8c0.6-1.4,1.5-2.5,2.5-3.4c1-0.9,2.1-1.5,3.4-2c1.3-0.5,2.6-0.7,3.8-0.7
		c1.3,0,2.6,0.2,3.8,0.7c1.3,0.5,2.4,1.1,3.5,2c1,0.9,1.8,2.1,2.4,3.4c0.6,1.4,0.9,3,0.9,4.8V279c0,1.9-0.3,3.5-0.9,4.8
		c-0.6,1.3-1.4,2.4-2.4,3.3c-1,0.9-2.2,1.6-3.5,2.1c-1.3,0.5-2.6,0.7-3.8,0.7c-1.3,0-2.6-0.2-3.8-0.7c-1.3-0.5-2.4-1.1-3.4-2.1
		c-1-0.9-1.9-2-2.5-3.3c-0.6-1.3-0.9-2.9-0.9-4.8V255.5z M145.8,279c0,1.5,0.4,2.7,1.3,3.4c0.9,0.7,1.9,1.1,3,1.1
		c1.2,0,2.2-0.4,3-1.1c0.9-0.7,1.3-1.9,1.3-3.4v-23.5c0-1.5-0.4-2.7-1.3-3.4c-0.9-0.7-1.9-1.1-3-1.1c-1.2,0-2.2,0.4-3,1.1
		c-0.9,0.7-1.3,1.9-1.3,3.4V279z"/>
	<path class="st4" d="M169.8,255.5c0-1.8,0.3-3.4,0.9-4.8c0.6-1.4,1.5-2.5,2.5-3.4c1-0.9,2.1-1.5,3.4-2c1.3-0.5,2.6-0.7,3.8-0.7
		c1.3,0,2.6,0.2,3.8,0.7c1.3,0.5,2.4,1.1,3.5,2c1,0.9,1.8,2.1,2.4,3.4c0.6,1.4,0.9,3,0.9,4.8V279c0,1.9-0.3,3.5-0.9,4.8
		c-0.6,1.3-1.4,2.4-2.4,3.3c-1,0.9-2.2,1.6-3.5,2.1c-1.3,0.5-2.6,0.7-3.8,0.7c-1.3,0-2.6-0.2-3.8-0.7c-1.3-0.5-2.4-1.1-3.4-2.1
		c-1-0.9-1.9-2-2.5-3.3c-0.6-1.3-0.9-2.9-0.9-4.8V255.5z M176.1,279c0,1.5,0.4,2.7,1.3,3.4c0.9,0.7,1.9,1.1,3,1.1
		c1.2,0,2.2-0.4,3-1.1c0.9-0.7,1.3-1.9,1.3-3.4v-23.5c0-1.5-0.4-2.7-1.3-3.4c-0.9-0.7-1.9-1.1-3-1.1c-1.2,0-2.2,0.4-3,1.1
		c-0.9,0.7-1.3,1.9-1.3,3.4V279z"/>
	<path class="st4" d="M220.7,276.8v2.8c0,1.4-0.3,2.7-0.8,3.9c-0.5,1.2-1.2,2.3-2.2,3.3c-0.9,1-2,1.7-3.2,2.3
		c-1.2,0.6-2.6,0.8-4,0.8c-1.2,0-2.4-0.2-3.7-0.5c-1.2-0.3-2.4-0.9-3.4-1.8c-1-0.8-1.8-1.9-2.5-3.2c-0.6-1.3-1-3-1-5v-24.5
		c0-1.5,0.2-2.8,0.8-4.1c0.5-1.2,1.2-2.3,2.1-3.2c0.9-0.9,2-1.6,3.3-2.2c1.3-0.5,2.7-0.8,4.2-0.8c3,0,5.4,1,7.3,2.9
		c0.9,1,1.6,2.1,2.2,3.4c0.5,1.3,0.8,2.7,0.8,4.3v2.5h-6.4v-2.1c0-1.2-0.4-2.3-1.1-3.2c-0.7-0.9-1.7-1.4-2.9-1.4
		c-1.6,0-2.6,0.5-3.2,1.5c-0.5,1-0.8,2.2-0.8,3.7v22.7c0,1.3,0.3,2.4,0.8,3.2s1.6,1.3,3,1.3c0.4,0,0.9-0.1,1.3-0.2
		c0.5-0.1,0.9-0.4,1.3-0.7c0.4-0.3,0.7-0.8,0.9-1.4c0.2-0.6,0.4-1.3,0.4-2.2v-2.2H220.7z"/>
	<path class="st4" d="M229.2,255.5c0-1.8,0.3-3.4,0.9-4.8c0.6-1.4,1.5-2.5,2.5-3.4c1-0.9,2.1-1.5,3.4-2c1.3-0.5,2.6-0.7,3.8-0.7
		c1.3,0,2.6,0.2,3.8,0.7c1.3,0.5,2.4,1.1,3.5,2c1,0.9,1.8,2.1,2.4,3.4c0.6,1.4,0.9,3,0.9,4.8V279c0,1.9-0.3,3.5-0.9,4.8
		c-0.6,1.3-1.4,2.4-2.4,3.3c-1,0.9-2.2,1.6-3.5,2.1c-1.3,0.5-2.6,0.7-3.8,0.7c-1.3,0-2.6-0.2-3.8-0.7c-1.3-0.5-2.4-1.1-3.4-2.1
		c-1-0.9-1.9-2-2.5-3.3c-0.6-1.3-0.9-2.9-0.9-4.8V255.5z M235.6,279c0,1.5,0.4,2.7,1.3,3.4c0.9,0.7,1.9,1.1,3,1.1
		c1.2,0,2.2-0.4,3-1.1c0.9-0.7,1.3-1.9,1.3-3.4v-23.5c0-1.5-0.4-2.7-1.3-3.4c-0.9-0.7-1.9-1.1-3-1.1c-1.2,0-2.2,0.4-3,1.1
		c-0.9,0.7-1.3,1.9-1.3,3.4V279z"/>
	<path class="st4" d="M259.5,255.5c0-1.8,0.3-3.4,0.9-4.8c0.6-1.4,1.5-2.5,2.5-3.4c1-0.9,2.1-1.5,3.4-2c1.3-0.5,2.6-0.7,3.8-0.7
		c1.3,0,2.6,0.2,3.8,0.7c1.3,0.5,2.4,1.1,3.5,2c1,0.9,1.8,2.1,2.4,3.4c0.6,1.4,0.9,3,0.9,4.8V279c0,1.9-0.3,3.5-0.9,4.8
		c-0.6,1.3-1.4,2.4-2.4,3.3c-1,0.9-2.2,1.6-3.5,2.1c-1.3,0.5-2.6,0.7-3.8,0.7c-1.3,0-2.6-0.2-3.8-0.7c-1.3-0.5-2.4-1.1-3.4-2.1
		c-1-0.9-1.9-2-2.5-3.3c-0.6-1.3-0.9-2.9-0.9-4.8V255.5z M265.9,279c0,1.5,0.4,2.7,1.3,3.4c0.9,0.7,1.9,1.1,3,1.1
		c1.2,0,2.2-0.4,3-1.1c0.9-0.7,1.3-1.9,1.3-3.4v-23.5c0-1.5-0.4-2.7-1.3-3.4c-0.9-0.7-1.9-1.1-3-1.1c-1.2,0-2.2,0.4-3,1.1
		c-0.9,0.7-1.3,1.9-1.3,3.4V279z"/>
	<path class="st4" d="M327.1,245l-9.1,44.5h-5.6l-9.1-44.5h6.7l5.1,31.1h0.1l5.1-31.1H327.1z"/>
	<path class="st4" d="M334.8,289.5V245h6.4v44.5H334.8z"/>
	<path class="st4" d="M351,289.5V245h6.4v38.1H370v6.4H351z"/>
	<path class="st4" d="M377.8,289.5V245h6.4v38.1h12.6v6.4H377.8z"/>
	<path class="st4" d="M401.8,289.5l9.9-44.5h5.3l9.9,44.5h-6.4l-1.9-9.6H410l-1.9,9.6H401.8z M417.5,273.9l-3.1-16.1h-0.1l-3.1,16.1
		H417.5z"/>
</g>
</svg>
