<svg xmlns="http://www.w3.org/2000/svg" width="18.066" height="13.139" viewBox="0 0 18.066 13.139"><defs><style>.a{fill:#b7c7fa;}</style></defs><path class="a" d="M17.6,9.642A8.635,8.635,0,0,0,13.5,8l-.2.4a7.932,7.932,0,0,1,3.9,2.062,12.079,12.079,0,0,0-6.159-1.642,12.079,12.079,0,0,0-6.159,1.642A8.1,8.1,0,0,1,8.77,8.4L8.57,8A8.58,8.58,0,0,0,4.464,9.642S2.361,12.691,2,18.676a7.757,7.757,0,0,0,5.338,2.464l.673-.9a8.226,8.226,0,0,1-3.548-2.388,10.354,10.354,0,0,0,6.57,2.053,10.354,10.354,0,0,0,6.57-2.053,8.222,8.222,0,0,1-3.548,2.388l.673.9a7.757,7.757,0,0,0,5.338-2.464C19.705,12.691,17.6,9.642,17.6,9.642ZM8.364,17.033a1.55,1.55,0,0,1-1.437-1.642,1.55,1.55,0,0,1,1.437-1.642A1.55,1.55,0,0,1,9.8,15.391,1.55,1.55,0,0,1,8.364,17.033Zm5.338,0a1.55,1.55,0,0,1-1.437-1.642A1.55,1.55,0,0,1,13.7,13.748a1.55,1.55,0,0,1,1.437,1.642A1.55,1.55,0,0,1,13.7,17.033Z" transform="translate(-2 -8)"/></svg>