<?xml version="1.0" encoding="utf-8"?>
<!-- Generator: Adobe Illustrator 21.0.0, SVG Export Plug-In . SVG Version: 6.00 Build 0)  -->
<svg version="1.1" id="图层_1" xmlns="http://www.w3.org/2000/svg" xmlns:xlink="http://www.w3.org/1999/xlink" x="0px" y="0px"
	 viewBox="0 0 567 567" style="enable-background:new 0 0 567 567;" xml:space="preserve">
<style type="text/css">
	.st0{fill:#333399;}
	.st1{fill:#747C29;}
	.st2{fill:#5680C6;}
	.st3{enable-background:new    ;}
	.st4{fill:#FFFFFF;}
</style>
<title>coocoo signage button</title>
<path class="st0" d="M208.8,231.5h161.4c23.8,0,43.2,19.3,43.2,43.2v0.9c0,23.8-19.3,43.2-43.2,43.2H208.8
	c-23.8,0-43.2-19.3-43.2-43.2v-0.9C165.6,250.8,184.9,231.5,208.8,231.5z"/>
<ellipse class="st1" cx="285.8" cy="379.8" rx="32.9" ry="14.1"/>
<path d="M285.8,296.3L285.8,296.3c7.2,0,13,5.8,13,13v57.4c0,7.2-5.8,13-13,13l0,0c-7.2,0-13-5.8-13-13v-57.4
	C272.8,302.1,278.6,296.3,285.8,296.3z"/>
<path class="st2" d="M199.7,222.1h161.4c23.8,0,43.2,19.3,43.2,43.2v0.9c0,23.8-19.3,43.2-43.2,43.2H199.7
	c-23.8,0-43.2-19.3-43.2-43.2v-0.9C156.5,241.4,175.8,222.1,199.7,222.1z"/>
<g class="st3">
	<path class="st4" d="M195.6,253.3c0-1.6,0.3-3.1,0.9-4.3c0.6-1.2,1.3-2.3,2.3-3.1c0.9-0.8,1.9-1.4,3.1-1.8c1.2-0.4,2.3-0.6,3.5-0.6
		c1.2,0,2.3,0.2,3.5,0.6c1.2,0.4,2.2,1,3.2,1.8c0.9,0.8,1.6,1.9,2.2,3.1c0.6,1.2,0.9,2.7,0.9,4.3v2h-5.8v-2c0-1.4-0.4-2.4-1.2-3.1
		c-0.8-0.7-1.7-1-2.8-1c-1.1,0-2,0.3-2.8,1c-0.8,0.7-1.2,1.7-1.2,3.1v21.3c0,1.4,0.4,2.4,1.2,3.1c0.8,0.7,1.7,1,2.8,1
		c1.1,0,2-0.3,2.8-1c0.8-0.7,1.2-1.7,1.2-3.1V267h-4.6v-5.1H215v12.7c0,1.7-0.3,3.2-0.9,4.4c-0.6,1.2-1.3,2.2-2.2,3
		c-0.9,0.8-2,1.5-3.2,1.9c-1.2,0.4-2.3,0.6-3.5,0.6c-1.2,0-2.3-0.2-3.5-0.6c-1.2-0.4-2.2-1-3.1-1.9c-0.9-0.8-1.7-1.8-2.3-3
		c-0.6-1.2-0.9-2.7-0.9-4.4V253.3z"/>
	<path class="st4" d="M220.4,284.2l9-40.4h4.8l9,40.4h-5.8l-1.7-8.7h-7.9l-1.7,8.7H220.4z M234.7,270.1l-2.8-14.6h-0.1l-2.8,14.6
		H234.7z"/>
	<path class="st4" d="M249.1,284.2v-40.4h5.8v34.6h11.5v5.8H249.1z"/>
	<path class="st4" d="M273.1,284.2v-40.4h5.8v34.6h11.5v5.8H273.1z"/>
	<path class="st4" d="M297,284.2v-40.4h17.3v5.4h-11.5v11.9h10v5.4h-10v11.9h11.5v5.8H297z"/>
</g>
<g class="st3">
	<path class="st4" d="M323.2,284.2v-40.4h9.3c6.8,0,10.2,4,10.2,11.9c0,2.4-0.4,4.4-1.1,6.1c-0.7,1.7-2,3-3.9,4l6.2,18.4h-6.1
		l-5.4-17.3H329v17.3H323.2z M329,249.2v12.6h3.3c1,0,1.8-0.1,2.4-0.4s1.1-0.7,1.4-1.2c0.3-0.5,0.5-1.2,0.6-2
		c0.1-0.8,0.2-1.7,0.2-2.7s-0.1-1.9-0.2-2.7c-0.1-0.8-0.3-1.4-0.7-2c-0.7-1.1-2.1-1.6-4.1-1.6H329z"/>
</g>
<g class="st3">
	<path class="st4" d="M355.2,284.2v-17.1l-7.9-23.3h6.1l4.7,16.1h0.1l4.7-16.1h6.1l-7.9,23.3v17.1H355.2z"/>
</g>
</svg>
