<svg xmlns="http://www.w3.org/2000/svg" xmlns:xlink="http://www.w3.org/1999/xlink" viewBox="0 0 567 567"><defs><style>.cls-1{fill:none;}.cls-2{fill:#f96;}.cls-3{clip-path:url(#clip-path);}.cls-4{fill:#fff;}.cls-5{fill:#c8c9ca;}.cls-6{fill:#b4b4b5;}.cls-7{fill:#25201c;}.cls-8{fill:#3e3a39;}</style><clipPath id="clip-path"><circle class="cls-1" cx="291.71" cy="290.42" r="169.29"/></clipPath></defs><title>icon</title><g id="logo_导航栏" data-name="logo 导航栏"><circle class="cls-2" cx="291.71" cy="290.42" r="165.87"/><g class="cls-3"><path class="cls-4" d="M286.21,762.63C178.74,810.57,22.87,855.48-87.08,884.3c-46.44,12.21-84.71,21.52-107.65,26.94a168.07,168.07,0,0,1-46.7,4.31c-52.23-.64-94.43-15.48-124.44-40.48S-413.72,815-417.23,773.77c3.43-18.4,8.58-45.05,14.32-71.56,7.74-36.23,16.58-72.27,23.41-86.62,0,0,64.1-157.24,211.68-253.88l2.26-15.25c10.73-1.77,21.48-3.58,32.23-5.3A439.38,439.38,0,0,1,27.51,290.76c1.67-.19,7.86-10.3,9.1-11.65A188.7,188.7,0,0,1,67,251.88c15.65-11.45,33.62-27.13,51.54-34.74,23.86-10.09,52.91-16.68,79.49-14.3a188.35,188.35,0,0,1,41.71,8.37c26.18,8.49,42.48,24.71,57.85,54.25l35.71,123.81s7.79,16.82,17.13,43.54a7.44,7.44,0,0,1,2.38,1.18l4.3,3.17a7.53,7.53,0,0,1,2.51,3.2c2.56,6.05,10.14,24.21,9.18,24.21-.33,0-3.39.87-7.55,2.1C388.09,559.11,408.45,708.1,286.21,762.63Z"/><path class="cls-5" d="M135,364l-12.53,16.22,26.52-4-6.54,21.25,17.25-13.08-6.54,32.69,19.8-27.43,5.45,7.81L187.8,388l8.35,13.67s9.26-6.9,9.81-6.9,9.81-10.17,9.81-10.17S185.8,344.91,135,364Z"/><path class="cls-5" d="M236.57,392,238,402.14l8.08-7.9,4.63,21,10.9-27S245,377.69,236.57,392Z"/><path class="cls-5" d="M52.95,311.69,25.7,326.4h24l-10.35,27L65.48,337.7l-3,19.72,19.34-12s1.09,4.52,1.91,4.44,9.54-5,9.54-5l6.81,9.81s1.91,1.63,7.08-.27,7.9-13.91,7.9-13.91S103.35,308.42,52.95,311.69Z"/><path class="cls-5" d="M251.32,601.36c-19.71,34.09-44.34,64.18-70.37,93.52-30.86,34.76-63.68,67.3-100.49,95.61-18.11,14-36.6,27.65-57.89,36.87-3.83,1.66-7,4.83-10.49,7.37-10.25,7.59-21.71,10.58-34.4,9.52a33.56,33.56,0,0,1-23.43-11.58c-2.86-3.25-4.63-5.06-6.14-5.42a48.47,48.47,0,0,0,19-8.65c3.45-2.55,6.67-5.71,10.49-7.37,21.3-9.21,39.77-22.89,57.89-36.85,36.8-28.33,69.63-60.86,100.49-95.62,26-29.35,50.68-59.43,70.37-93.52a55.45,55.45,0,0,0,7.73-30.71c-.57-16.8-6.39-29.36-15.08-38.16,28.46-1.3,58.63,14.85,60,54.29A55.45,55.45,0,0,1,251.32,601.36Z"/><path class="cls-5" d="M321.08,319.79a37.35,37.35,0,0,1-9.9,11.07c-6.08,9-18.28,16.64-34,21.33a130,130,0,0,1-37.64,5.24c-41.94,0-75.92-17.85-75.92-39.74,0-8.23,4.75-15.85,12.89-22.15a39.63,39.63,0,0,1,9-9.33,22.88,22.88,0,0,0-3,11.1c0,21.89,34,39.74,75.92,39.74a130,130,0,0,0,37.64-5.24C306.09,328.83,314.62,324.71,321.08,319.79Z"/><path class="cls-5" d="M343.22,538.26c3.53,26.55,6.88,53.28,3.71,80.05-3.36,28.3-15.7,55.14-30.37,79.25-8.26,13.58,13,26,21.27,12.43,16-26.28,29-55.54,33-86.24,3.79-28.74.77-56.93-3-85.49-.88-6.59-5-12.32-12.32-12.32-6,0-13.2,5.68-12.32,12.32Z"/><path class="cls-1" d="M332.69,289.36c0,4.15-8.18,7.47-18.27,7.47S296,293.51,296,289.36s8.18-7.47,18.38-7.47S332.69,285.21,332.69,289.36Z"/><path class="cls-4" d="M334.88,298c0,14.73-15.39,27.67-38.26,34.51A130,130,0,0,1,259,337.7c-41.94,0-75.91-17.85-75.91-39.75s34-39.69,75.91-39.69S334.88,276,334.88,298Z"/><path class="cls-6" d="M410.65,294.89c-23.67-9-48.35-11.76-73.52-11.08-3.58.09-7.18.58-10.52-1.47-.06.36-.1.72-.18,1.07,4.48,5.07,7,10.71,7,16.68,0,14.73-17,24.82-39.87,31.64a11.57,11.57,0,0,1-1.78.44c2.83,12.48.82,29,.34,41.77-.1,2.73-1.7,6.47,1.76,7.74,3.61,1.34,5.85-2,7.76-4.53,3.71-4.89,7.07-10,11.32-14.55,26.65-28.44,59.26-45.67,97.43-53,4.55-.86,12.44.76,12.94-5.13C423.88,297.63,415.76,296.85,410.65,294.89Z"/><path class="cls-7" d="M427.42,300.43c-6.52-4.66-13.79-7.77-21.34-10.38-22.22-7.67-45.15-9.73-68.44-8.7-5,.22-8.41-1.13-12.47-4.32-11.67-9.19-24.52-16.41-40-16.92q-.26,0-.54.62t.42,1.33c3.05,2.79,7.21,2.72,10.79,4.14,9.76,3.88,19.88,7.52,26.84,15.61,2.75,3.2,4.84,4.34,8.65,4.21,14.1-.46,28.17-.25,42.2,1.77,14.33,2.06,28.4,4.94,41.6,11.08,3.05,1.42,6.59,2.42,8.37,5.74-53.24,7.65-96.84,30.53-128.21,77.14,0-5.32.06-8.77,0-12.23-.22-10.85-.54-21.7-.71-32.56-.05-3.37-.86-5.69-4.89-5.08,0,14.75.56,29.52-.18,44.23-.43,8.47,6.74,12.45,9.09,19.17.86,2.45,5,2.46,7.88,2.19,3.2-.3,6.48-.66,9.32-2.42a4.1,4.1,0,0,1,1.63-.63c2.71-1.68,5.35-3.45,7.86-5.34l0,0c1.63-2.17,4.62-3,6.73-4.53,31.81-22.7,63.79-45.16,95.67-67.77C436.27,310.69,436.15,306.67,427.42,300.43Z"/><path class="cls-7" d="M153.77,497.41c-2.21,3.2-5.59,1.86-8.54,2.17a15.47,15.47,0,0,0-1.13-2.13,5.94,5.94,0,0,1,.63-.16C147.76,496.54,150.7,500.1,153.77,497.41Z"/><path class="cls-7" d="M221.48,587.24c-19.7,34.09-44.35,64.17-70.38,93.52-30.85,34.76-63.68,67.29-100.48,95.62C32.5,790.35,14,804-7.26,813.23c-3.83,1.66-7.06,4.82-10.49,7.37-10.26,7.59-21.72,10.57-34.41,9.53a33.59,33.59,0,0,1-23.44-11.58c-6.56-7.45-7.37-7.35-12.79.65-.41.59-.87,1.15-1.3,1.72a3.73,3.73,0,0,1-2.49.85,7.81,7.81,0,0,1,.93-3.1c7.06-9.33,9.86-9.88,16.76-3.26a41.67,41.67,0,0,0,50.3,5.95C5,803.86,34.63,787,60.9,765a797,797,0,0,0,85.38-83.22c20.2-22.89,40.61-45.49,57.47-71.07,5.53-8.4,10.59-17.08,15.73-25.71,12.06-20.26,9.37-40.59-2.94-58.87-11.86-17.59-30.89-22.25-51.33-20.51-19.31,1.62-35.75,10-50.18,22.63a32.75,32.75,0,0,1-4.25,3.32c-2.65,1.6-5.38,2.25-7.89-.16-2.92-2.81-2.19-5.91,0-8.68,4.31-5.43,10.18-9.07,15.85-12.81,7.91-5.22,16-10.26,25.38-12.41a15.47,15.47,0,0,1,1.13,2.13c-14.88,4.11-27.12,12.67-38.4,22.83a24.38,24.38,0,0,0-3.52,4c-1,1.36-.49,2.69.67,3.79s2.49,1.5,3.79.47c2-1.56,3.83-3.24,5.73-4.9,15-13.1,32.37-21.42,52.16-23.34,29.45-2.83,62.12,13,63.54,54.05A55.56,55.56,0,0,1,221.48,587.24Z"/><path class="cls-7" d="M235.17,572.14A165.11,165.11,0,0,1,206,626.84c-27.67,33.93-55.16,68.06-85.81,99.41C86.41,760.76,49.62,791.61,7.6,815.84A26.68,26.68,0,0,1-.21,819.3c-5,1.07-8.85,3.89-12.89,7.08-15.34,12.11-32.55,15.87-51.5,9.68-7.31-2.39-12.79-7.45-18.91-13.56-3.76,7.94-8.66,14-15.26,18.48-2,1.38-3.89,3.32-6.54,3.48a4.39,4.39,0,0,1-2.91-.95,2.09,2.09,0,0,1,.1-2.87c2.55-3,5.83-5.43,6.32-10.16-1.62-2.63-6.6,1.27-7.47-3.2-.65-3.34,3.18-4.47,4.29-8.32-17.69,1.21-32.77-3.74-44-17.17-8.34-10-12.89-21.46-11.66-34.78-.67-.93-.93-2.31-2.49-2.25-1.54,3-4.25,2.27-6.64,1.9-14-2.21-23.74-12.41-25.67-26.6-1.84-13.54,1-26.38,5.55-39,8.56-23.54,22.06-44.25,36.88-64.13a393.26,393.26,0,0,1,68.64-71.15c3.3-2.67,7.06-4.7,3.12-10.06-2.15-2.93-.34-6.56,2.73-8.3a82.55,82.55,0,0,0,13.72-9.72,13.88,13.88,0,0,1,10-3c10.57,1.54,16.9-4.78,24.27-10.53,18.89-14.7,40.95-23.36,63.4-31A304.41,304.41,0,0,1,100,478.7c10.75-1.09,21.6-.87,32.08,1.94,8.3,2.21,16.84,4.8,18,15.71.18,1.74,2.49.59,3.74,1.07-3.06,2.69-6-.87-9-.12a5.94,5.94,0,0,0-.63.16,15.47,15.47,0,0,1,1.13,2.13c-16.7-12.15-36-9.19-54.07-7.17A269.67,269.67,0,0,0-7.92,523.15c-5.38,2.91-10.81,5.75-15.28,10-6.52,6.19-12.57,11.32-23,11.58a16.32,16.32,0,0,0-15.71,14.37c-.59,4.88-5.55,7.27-9.15,10.1-29.74,23.48-55.46,50.81-78.12,81.09-12.55,16.74-22.27,35.06-30,54.47a60.37,60.37,0,0,0-4.15,15.55c-1.9,17.43-1.78,28.82,16.52,34.7a7.47,7.47,0,0,1,4.59,3.89c1.13-2,2.63-3.66,5.36-2.41,1.64.75,1.36,2.81-.16,4.15,2.25,7.83,3.93,15.87,6.92,23.4,5.14,13.06,15.12,21.64,28.54,25.16,6.88,1.8,14.53,3.68,21.34-1.78,2.67-2.13,3.46.47,4,2.57.89,3.6-2,7.93,2.08,10.91a3.82,3.82,0,0,0,1.52.81,2,2,0,0,0,.49.08,3.73,3.73,0,0,0,2.49-.85c.44-.57.89-1.13,1.3-1.72,5.42-8,6.23-8.1,12.79-.65a33.59,33.59,0,0,0,23.44,11.58c12.69,1,24.15-1.94,34.41-9.53,3.44-2.55,6.66-5.71,10.49-7.37C14,804,32.5,790.35,50.62,776.37c36.8-28.32,69.63-60.85,100.48-95.62,26-29.35,50.67-59.43,70.38-93.52a55.56,55.56,0,0,0,7.73-30.71c-1.42-41.07-34.09-56.88-63.54-54.05-19.78,1.92-37.15,10.24-52.16,23.34-1.9,1.66-3.75,3.34-5.73,4.9-1.3,1-2.63.65-3.79-.47s-1.64-2.43-.67-3.79a24.38,24.38,0,0,1,3.52-4c11.28-10.16,23.52-18.72,38.4-22.83,2.94-.32,6.32,1,8.54-2.17,24.13-6.17,46.6-3.1,64.94,14.57C235.79,528.42,242.31,549.59,235.17,572.14Z"/><path class="cls-7" d="M153.77,497.41c-2.21,3.2-5.59,1.86-8.54,2.17a15.47,15.47,0,0,0-1.13-2.13,5.94,5.94,0,0,1,.63-.16C147.76,496.54,150.7,500.1,153.77,497.41Z"/><path class="cls-7" d="M259.1,777.37c.79-4.44,3.72-6.41,7.89-7.56,42.08-11.62,69.37-40,87.52-78.25,21.07-44.34,26.25-91.17,20.24-139.52-.71-5.68-1.92-11.3-2.88-16.94-.54-3.13,0-6.15,3.39-6.89,3.54-.78,5,2,5.68,5a202.06,202.06,0,0,1,4.78,31.86c4.25,62.61-8.12,120.62-49.2,170-17.31,20.81-39,35.55-65.51,42.91-4.52,1.26-8.25,1.29-12.19-.91Z"/><path class="cls-7" d="M149.8,396.36c-3.31,2.27-6,7.32-10.79,4.36-5.18-3.23-.58-7.7-.13-11.61.27-2.36,2.48-4.3,1.7-7.77-4.11,1.16-8,2.47-12,3.33-3.12.67-6.68,1.33-8.87-1.82-2.55-3.68-.2-6.83,2.09-9.61,3.41-4.14,7-8.16,11.59-11a3,3,0,0,1,3.9.5c1.27,1.41.46,2.54-.71,3.55a43.36,43.36,0,0,0-9.08,9.82c2.83,1.45,5,.6,7.23-.06,4.08-1.24,8.15-2.56,12.27-3.67,2.06-.56,4.41-.9,5.85,1.14,1.23,1.74-.22,3.31-1.06,4.86s-1.53,3.18-2.28,4.77c-.92.88-.67,1.7.17,2.44.55.49,1.13.33,1.64-.38,2.2-1.8,4.39-3.61,6.62-5.38,1.65-1.31,3.42-3.23,5.62-1.86,2.59,1.61,1.85,4.35,1.16,6.76-.87,3.07-1.89,6.1-2.85,9.14a18.92,18.92,0,0,1-.52,3.63,8.82,8.82,0,0,0-.66.59s.92-.27.92-.31c.22-1.91,1.69-2.8,3-3.81,1-1.47,2-2.93,3-4.43,5.34-8.26,6.5-8.21,11.63.58.64-.27,1.53-.36,1.87-.85,2-2.84,2.86-7.39,7.07-7.22,5.2.2,4.72,5.53,6.15,8.94.81,1.94.79,4.29,4.12,5.56,2.07-7.72,12.15-6.56,15.33-14.06,1.1-2.59,3.64-1.24,4.64,1.11,1.65,3.85,1.14,7.86-.19,11.58-1.52,4.24-5,4.48-8.85,3.29-1.57-.49-2.47,1-3.59,1.81-9.73,7.4-11.76,7-18.84-3.79-1.73-.06-2.25,1.24-3.07,2.44-5.75,8.35-7.52,8.21-12.6-1.27-3.89,4.47-6.08,9.74-9,14.58-1.28,2.15-2.59,4.29-4,6.37-1.71,2.57-4,4.4-7.21,3.29-3.83-1.33-4-4.78-3.43-8.06a104.74,104.74,0,0,1,2.92-11.43c.63-2.07,1.45-4,1.09-6.26C150.75,394,150.4,396.07,149.8,396.36Z"/><path class="cls-7" d="M46,346.47c6.37-3.11,11.32-8.19,17-12.22,1.92-1.35,3.71-3.75,6.48-2,3.18,2,2.07,4.7.83,7.4a23.4,23.4,0,0,0-1.08,4.06c-.45,1.48-.1,3.07-.64,4.53-.49.43-.59.88-.28,1.34a.3.3,0,0,0,.28.16c1.42-.24-.14.62.05-.85a12,12,0,0,1,3.23-2.39l6.85-6.75c1.65-1.63,4.82-3,5.61-1.47,2.95,5.72,5.73,2.82,9.37,1.07,2.7-1.3,4.62,1.28,5.51,3.68,1.23,3.31,1.5,7.08,5.43,8.93,3.55-1,3.58-4.88,5.65-7.11,1.19-1.29,2.24-3.1,4.33-1.85a3.75,3.75,0,0,1,1.56,4.68c-1.72,5.06-3,10.68-9.22,12.13-8.14,1.91-11.36-4-14.34-9.82-2.38.77-3.44,2.76-4.93,4.27-5.86,5.91-5.94,5.89-12-.76l-8.2,8.3c-1.93,2-4.31,2.75-6.85,1.8-2.91-1.09-2.8-3.85-2.59-6.31.24-2.85.81-5.66,1.24-8.49-.21-.65,1.9-1.92-.53-2-5.26,3.68-10.54,7.34-15.77,11.06-2.21,1.57-4.8,2.48-7,.86s-1.71-4.44-1.17-7c1.48-7,5.67-13,8.06-19.83a30.45,30.45,0,0,0-12.11.61,16.73,16.73,0,0,1-9.53-.74c-4.12-1.5-5.29-4.94-1.93-7,8.49-5.28,17.36-10,26.15-14.72a3.12,3.12,0,0,1,3.88,1.1c1.14,1.89-.07,3.31-1.76,4.34-2.73,1.68-5.44,3.39-8.17,5.09-1.24,5.94,2.74,2.44,4.69,2.6,2.47-.17,4.94-.31,7.41-.52,2.08-.17,4.43-.85,5.4,1.81.85,2.36-.71,3.87-2.33,5.4a36.39,36.39,0,0,0-9,14.22C45.72,344.91,43.93,345.94,46,346.47Z"/><path class="cls-7" d="M364.76,471.71c5.82,12.76,10.11,26,11.82,40,.26,2.12.82,4.22,0,6.36a3.87,3.87,0,0,1-2.86,2.85,3.55,3.55,0,0,1-4.34-2.24,40,40,0,0,1-1.91-7.24,146,146,0,0,0-12.9-41.87c-4.15-8.4-3.53-9.26,6.83-11.73-2.84-9.27-7.75-17.54-12-26.1-4.13-8.32-8.32-16.62-12.27-25-1.13-2.4-4-5.79-.87-7.67,3.35-2,4.69,2.07,6,4.41,10.67,19.42,21.9,38.57,30.36,59.13,1,2.35,2.36,4.59.43,7-2.51,3.1-5.21.58-7.84.12-1.1-.27-1.38.1-.92,1.14C364.54,471.37,364.64,471.71,364.76,471.71Z"/><path class="cls-7" d="M251.8,404.09c4.34-4,3.49-8.31,4.83-11.83,1-2.5,1.73-5,5-4,2.46.7,3,3,2.45,5.2-2,7.93-3.63,16-7.73,23.23-1.46,2.58-3.47,5.08-6.65,4.4s-4.16-3.7-4.81-6.54a23.11,23.11,0,0,1-.52-5.31c0-3.59-1.12-5.27-5.1-4.26-2.58.65-5.26,0-5.75-3.16-.64-4.16-1.16-8.5,2.14-11.94.54-.56,2-.54,2.95-.33,2.38.54.15,4.76,2.82,4.4,1.72-.23,3-3,4.8-3.71,2.46-1,4.06.89,4.45,3.21C251.21,396.57,251.37,399.78,251.8,404.09Z"/><path class="cls-7" d="M-506.06,658.84c6.79-4.93,14.1-4.42,21.41-1.67,12.72,4.79,25.43,9.62,37.49,16,11.68,6.16,23.43,12.2,35.89,18.68,8.38-25.06,17.56-49.32,28.45-73.63-6.87-.61-12.15,2.26-17.9,2.4-23.79.59-41.43-10-51.45-31.68-9-19.56-8.19-39.71-3.1-60,2.9-11.56,8-22.23,14.14-32.62-3.53-1.7-8.88-.72-9.44-5.85-.76-7,6-9.08,9.76-13.41-2-2.14-5.45-3.29-4.92-7.17.38-2.82,2.28-4.49,4.38-5.83a102.55,102.55,0,0,1,20.18-10c9.34-3.42,16-9.37,21.9-17.71,36.33-51.31,79-96.66,129.19-134.77a288.8,288.8,0,0,1,54-33c13.64-6.27,28.06-8.05,42.61-10,24.93-3.3,49.91-5.85,75.1-4.29,22.22,1.38,44.17,4.34,65.2,12.24C-20.58,271.27-8.65,277,.26,287.35c2.84,3.31,6,3.6,9.61,2.88,9-1.81,16.73-5.75,22.81-13.07A235,235,0,0,1,86.4,229.39c28.49-18.33,59.16-30.79,93.28-32.54,44.8-2.3,82.43,12.22,109.71,49.31a40.14,40.14,0,0,1,4.11,6.3c1.56,3.27,6.39,7.53,2.57,10-4.56,3-5.76-3.64-7.72-6.38C259.5,215.71,220,199.91,171.43,205.8c-54,6.55-95.12,35.61-129.69,75.59C34.18,290.12,25.8,295.17,13.62,296c-17.14,1.17-33.49,7.43-50,12.17-27.21,7.82-53.6,17.94-78.57,31.53-4.3,2.34-8.69,4.17-14.21,3.54-5.19-.59-10.78.52-15.93,1.88-4.58,1.2-11-.18-12.34,7.45-.29,1.63-4.55,2.55-7.06,3.83,7.26,7,7.34,7.11-.25,12.32C-279,447.23-353.76,555-398.47,685c-.23.68-.52,1.34-.73,2-3.48,11.39-8.17,17.08-22.87,8.75C-441,685-460.22,674.54-480.7,666.63c-7.7-3-15-4.22-23-3.09-1.6,1.19-3.47,1.23-4.33-.45S-507.26,660-506.06,658.84Zm329.64-307.7c-1.89-.73-3-2.16-2.66-4.12.55-2.89,3.07-3.93,5.53-4.39,12.32-2.29,24.6-4.94,37-6.37a54.82,54.82,0,0,0,19.32-5.72A418.36,418.36,0,0,1-24,295.7c5-1.2,10.44-.84,15.43-4.28-6.76-6.79-14.64-10.85-22.93-14.25-21.44-8.8-44-12.7-66.91-14.36-27.23-2-54.44-1.29-81.38,4.14-11.21,2.26-22.5,3.85-33,8.82-20.55,9.7-39.35,22.13-57.1,36.17-49.9,39.45-92.41,86-130.15,137-2.1,2.83-3.61,5.89-7.39,7.36-7,2.71-13.68,6.11-20.5,9.23-.47,5.51,4.83,1.06,6.12,3.54,2.45,2.2,2.06,4.54-.27,6.27-3.4,2.53-7.1,4.67-10.67,7q-.3,0-.57.82t.68,1.56c2.77,0,6-1.13,7.66,2.22,1.77,3.68-1.88,4.55-3.62,6.6a90.94,90.94,0,0,0-18.06,35c-5.51,19.88-5.83,39.67,3.21,58.77,8.53,18,24.79,27.84,44,26.48,12.13-.86,21.13-4.69,27.46-17.49Q-305,460.93-183.48,370.85c4.26-3.14,10.3-5.3,5.37-12.51-.68-1,.88-2.55,2.13-3.37C-174.92,353.56-174.63,352.23-176.42,351.14Z"/><path class="cls-7" d="M287.63,332.6c-.57-2.1-3-1.44-4.67-1.63-18.4,5.32-37.11,5.52-55.75,2.14-12.82-2.32-25.19-6.5-34.78-16.16-8.95-9-9.72-19-2.3-29.24,4.77-6.61,11.27-11.15,18.39-14.81,19.14-9.83,39.71-12.38,60.89-11.8,4.61.13,9.39,1.42,13.71-1.42-.37-1.87-2.52-2-3.72-3a3.78,3.78,0,0,1-1.48-.76c-.75-.08-1.5-.18-2.24-.31a4.2,4.2,0,0,1-1.65,0,70,70,0,0,1-7.9-.13c-24-.22-46.82,4.12-67.32,17.22-11.08,7.08-20.47,16.18-19.44,30.48s11.22,22.38,23.27,27.74c26.54,11.8,54,12,81.78,5.09C286.41,335.47,288.2,334.67,287.63,332.6Z"/><path class="cls-8" d="M422.24,313.8q-47.67,34-95.35,68a77.15,77.15,0,0,1-17,9.2c-2.87,1.14-5.71,1.7-8-.9-2.54-2.89-1.92-5.95.14-8.9,3.09-4.45,5.71-9.32,9.3-13.31,26.95-30,59.63-50.6,99.67-57.43,6.72-1.2,8.76-1.53,12.53-.36C427.07,311.2,424.1,312.94,422.24,313.8Z"/><path class="cls-7" d="M328.86,290c0,6.36-9.91,11.45-22.11,11.45S284.5,296.39,284.5,290s9.91-11.45,22.25-11.45S328.86,283.66,328.86,290Z"/></g></g></svg>