<?xml version="1.0" encoding="utf-8"?>
<!-- Generator: Adobe Illustrator 21.0.0, SVG Export Plug-In . SVG Version: 6.00 Build 0)  -->
<svg version="1.1" id="图层_1" xmlns="http://www.w3.org/2000/svg" xmlns:xlink="http://www.w3.org/1999/xlink" x="0px" y="0px"
	 viewBox="0 0 567 567" style="enable-background:new 0 0 567 567;" xml:space="preserve">
<style type="text/css">
	.st0{fill:#747C29;}
	.st1{fill:#564640;}
	.st2{fill:#003300;}
	.st3{fill:#336600;}
	.st4{fill:#FFFFFF;}
</style>
<title>coocoo signage button</title>
<ellipse class="st0" cx="287.4" cy="419.3" rx="42.7" ry="14.1"/>
<path class="st1" d="M287.4,292L287.4,292c7.2,0,13,5.8,13,13v101.2c0,7.2-5.8,13-13,13l0,0c-7.2,0-13-5.8-13-13V305.1
	C274.4,297.9,280.2,292,287.4,292z"/>
<path class="st2" d="M209.5,214.9h184.7c27.3,0,49.4,22.1,49.4,49.4l0,0c0,27.3-22.1,49.4-49.4,49.4H209.5
	c-27.3,0-49.4-22.1-49.4-49.4l0,0C160.1,237,182.2,214.9,209.5,214.9z"/>
<path class="st3" d="M198.5,203.6h184.7c27.3,0,49.4,22.1,49.4,49.4l0,0c0,27.3-22.1,49.4-49.4,49.4H198.5
	c-27.3,0-49.4-22.1-49.4-49.4l0,0C149.1,225.7,171.2,203.6,198.5,203.6z"/>
<path class="st4" d="M174.5,279.3v-45.7h6.3l8.4,24.2h0.1l8.3-24.2h6.4v45.7h-6.6v-27.8h-0.1l-6.5,19.7h-3.3l-6.4-19.7H181v27.8
	H174.5z"/>
<path class="st4" d="M214.2,279.3v-45.7h6.6v45.7H214.2z"/>
<path class="st4" d="M230.7,279.3v-45.7h6.3l9.9,27.6h0.1v-27.6h6.6v45.7h-6.2l-10-27.5h-0.1v27.5H230.7z"/>
<path class="st4" d="M267.5,279.3v-39.6H260v-6.2h21.7v6.2h-7.6v39.6H267.5z"/>
<path class="st4" d="M303.8,279.3v-45.7h6.3l9.9,27.6h0.1v-27.6h6.6v45.7h-6.2l-10-27.5h-0.1v27.5H303.8z"/>
<path class="st4" d="M336.4,279.3v-45.7h19.5v6.2h-13v13.4h11.3v6.2h-11.3v13.4h13v6.6h-19.5V279.3z"/>
<path class="st4" d="M385.1,246.8h-6.6v-1.5c0-1.5-0.4-2.8-1.1-3.9c-0.7-1.1-1.9-1.6-3.6-1.6c-0.9,0-1.6,0.2-2.2,0.5s-1,0.8-1.3,1.3
	c-0.3,0.6-0.6,1.2-0.7,1.9s-0.2,1.4-0.2,2.2c0,0.9,0,1.6,0.1,2.2c0.1,0.6,0.2,1.1,0.5,1.6s0.6,0.9,1.1,1.2s1.2,0.7,2,1l5,2
	c1.5,0.6,2.6,1.2,3.5,2s1.6,1.6,2.1,2.6s0.8,2.2,1,3.5s0.3,2.8,0.3,4.5c0,1.9-0.2,3.7-0.6,5.4c-0.4,1.6-1,3.1-1.9,4.2
	c-0.9,1.2-2.1,2.1-3.5,2.8c-1.5,0.7-3.2,1-5.3,1c-1.6,0-3.1-0.3-4.4-0.8c-1.4-0.6-2.5-1.3-3.5-2.3s-1.8-2.1-2.3-3.4
	c-0.6-1.3-0.9-2.7-0.9-4.3v-2.4h6.6v2.1c0,1.2,0.4,2.3,1.1,3.2c0.7,1,1.9,1.4,3.6,1.4c1.1,0,2-0.2,2.6-0.5s1.1-0.8,1.4-1.4
	s0.5-1.3,0.6-2.2s0.1-1.8,0.1-2.8c0-1.2,0-2.2-0.1-3s-0.3-1.4-0.5-1.9c-0.3-0.5-0.7-0.9-1.2-1.2c-0.5-0.3-1.1-0.6-2-1l-4.7-1.9
	c-2.8-1.2-4.7-2.7-5.7-4.6c-1-1.9-1.4-4.3-1.4-7.2c0-1.7,0.2-3.3,0.7-4.9c0.5-1.5,1.2-2.9,2.1-4s2-2,3.4-2.7s3.1-1,5-1
	c1.6,0,3.1,0.3,4.5,0.9c1.3,0.6,2.5,1.4,3.5,2.4c2,2.1,3,4.4,3,7.1v3.5H385.1z"/>
<path class="st4" d="M398.1,279.3v-39.6h-7.6v-6.2h21.7v6.2h-7.6v39.6H398.1z"/>
</svg>
