<?xml version="1.0" encoding="utf-8"?>
<!-- Generator: Adobe Illustrator 21.0.0, SVG Export Plug-In . SVG Version: 6.00 Build 0)  -->
<svg version="1.1" id="图层_1" xmlns="http://www.w3.org/2000/svg" xmlns:xlink="http://www.w3.org/1999/xlink" x="0px" y="0px"
	 viewBox="0 0 567 567" style="enable-background:new 0 0 567 567;" xml:space="preserve">
<style type="text/css">
	.st0{fill:#747C29;}
	.st1{fill:#564640;}
	.st2{fill:#CC6633;}
	.st3{fill:#FF9966;}
	.st4{enable-background:new    ;}
	.st5{fill:#FFFFFF;}
</style>
<title>coocoo signage button</title>
<ellipse class="st0" cx="284.7" cy="419.9" rx="43.8" ry="14.5"/>
<path class="st1" d="M284.7,289.2L284.7,289.2c7.4,0,13.4,6,13.4,13.4v103.9c0,7.4-6,13.4-13.4,13.4l0,0c-7.4,0-13.4-6-13.4-13.4
	V302.6C271.3,295.2,277.3,289.2,284.7,289.2z"/>
<path class="st2" d="M202.4,210h172.3c28,0,50.7,22.7,50.7,50.7l0,0c0,28-22.7,50.7-50.7,50.7H202.4c-28,0-50.7-22.7-50.7-50.7l0,0
	C151.7,232.7,174.4,210,202.4,210z"/>
<path class="st3" d="M191.8,198.4h172.3c28,0,50.7,22.7,50.7,50.7l0,0c0,28-22.7,50.7-50.7,50.7H191.8c-28,0-50.7-22.7-50.7-50.7
	l0,0C141.1,221.1,163.8,198.4,191.8,198.4z"/>
<g class="st4">
	<path class="st5" d="M175.5,276.2v-46.9h10.8c7.9,0,11.9,4.6,11.9,13.8c0,2.8-0.4,5.1-1.3,7.1c-0.9,1.9-2.4,3.5-4.5,4.7l7.3,21.4
		h-7.1l-6.3-20h-4v20h-6.8V276.2z M182.3,235.5v14.6h3.8c1.2,0,2.1-0.2,2.8-0.5s1.3-0.8,1.6-1.4c0.4-0.6,0.6-1.4,0.7-2.3
		c0.1-0.9,0.2-1.9,0.2-3.1c0-1.2-0.1-2.2-0.2-3.1c-0.1-0.9-0.4-1.7-0.8-2.3c-0.8-1.2-2.4-1.8-4.7-1.8L182.3,235.5L182.3,235.5z"/>
</g>
<g class="st4">
	<path class="st5" d="M207.2,240.3c0-1.9,0.3-3.6,1-5c0.7-1.5,1.5-2.7,2.6-3.6c1.1-0.9,2.3-1.6,3.6-2.1s2.7-0.7,4.1-0.7
		c1.4,0,2.7,0.2,4.1,0.7c1.3,0.5,2.6,1.2,3.7,2.1c1.1,1,1.9,2.2,2.6,3.6c0.7,1.5,1,3.1,1,5v24.8c0,2-0.3,3.7-1,5.1s-1.5,2.6-2.6,3.5
		c-1.1,1-2.3,1.7-3.7,2.2c-1.3,0.5-2.7,0.7-4.1,0.7c-1.4,0-2.7-0.2-4.1-0.7c-1.3-0.5-2.5-1.2-3.6-2.2c-1.1-0.9-2-2.1-2.6-3.5
		c-0.7-1.4-1-3.1-1-5.1V240.3z M213.9,265.1c0,1.6,0.5,2.8,1.4,3.6c0.9,0.8,2,1.2,3.2,1.2s2.3-0.4,3.2-1.2c0.9-0.8,1.4-2,1.4-3.6
		v-24.8c0-1.6-0.5-2.8-1.4-3.6s-2-1.2-3.2-1.2s-2.3,0.4-3.2,1.2s-1.4,2-1.4,3.6V265.1z"/>
</g>
<path class="st5" d="M235.8,276.2l10.5-46.9h5.6l10.5,46.9h-6.7l-2-10.1h-9.2l-2,10.1H235.8z M252.4,259.7l-3.3-17H249l-3.3,17
	H252.4z"/>
<path class="st5" d="M269.6,276.2v-46.9h10c3.9,0,6.8,1.1,8.8,3.2c2,2.1,3,5.1,3,9v22c0,4.4-1.1,7.6-3.2,9.7s-5.2,3.1-9.2,3.1h-9.4
	V276.2z M276.4,235.5v34.3h3.1c1.9,0,3.2-0.5,4-1.4s1.2-2.4,1.2-4.5v-22.6c0-1.8-0.4-3.3-1.1-4.3s-2.1-1.5-4.1-1.5L276.4,235.5
	L276.4,235.5z"/>
<path class="st5" d="M301.7,276.2v-46.9h6.5l8.6,24.9h0.1l8.6-24.9h6.5v46.9h-6.7v-28.6h-0.1l-6.7,20.2h-3.4l-6.6-20.2h-0.1v28.6
	H301.7z"/>
<path class="st5" d="M339.3,276.2l10.5-46.9h5.6l10.5,46.9h-6.7l-2-10.1H348l-2,10.1H339.3z M355.9,259.7l-3.3-17h-0.1l-3.3,17
	H355.9z"/>
<path class="st5" d="M373.1,276.2v-46.9h10.1c1.8,0,3.5,0.2,4.9,0.7s2.7,1.3,3.8,2.6c1.1,1.2,1.9,2.7,2.4,4.3
	c0.4,1.6,0.7,3.9,0.7,6.7c0,2.1-0.1,3.9-0.4,5.3c-0.2,1.5-0.8,2.8-1.5,4.1c-0.9,1.5-2.2,2.7-3.7,3.6c-1.5,0.9-3.6,1.3-6.1,1.3h-3.4
	v18.3H373.1z M379.8,235.5v16h3.2c1.4,0,2.4-0.2,3.2-0.6c0.7-0.4,1.3-0.9,1.6-1.6c0.4-0.7,0.6-1.5,0.6-2.4c0.1-1,0.1-2,0.1-3.2
	c0-1.1,0-2.1-0.1-3.1c0-1-0.2-1.9-0.6-2.6c-0.4-0.7-0.9-1.3-1.6-1.7s-1.7-0.6-3-0.6h-3.4V235.5z"/>
</svg>
